<?xml version="1.0" encoding="utf-8"?>
<!-- Generator: Adobe Illustrator 19.2.0, SVG Export Plug-In . SVG Version: 6.00 Build 0)  -->
<svg version="1.1" id="Layer_1" xmlns="http://www.w3.org/2000/svg" xmlns:xlink="http://www.w3.org/1999/xlink" x="0px" y="0px"
	 viewBox="0 0 41 41" style="enable-background:new 0 0 41 41;" xml:space="preserve">
<style type="text/css">
	.st0{fill:#FFFFFF;}
</style>
<a href="http://instagram.com/afilion_" target="_blank">
<path id="instagram" class="st0" d="M41,6c0-3.3-2.7-6-6-6H6C2.7,0,0,2.7,0,6v29c0,3.3,2.7,6,6,6h29c3.3,0,6-2.7,6-6V6z M29,4h7v7
	h-7V4z M21.5,11.8c3.9,0,7,3.1,7,7s-3.1,7-7,7s-7-3.1-7-7S17.6,11.8,21.5,11.8z M38.1,33.1c-0.3,1.3-2.3,1.9-2.3,1.9
	S9.2,34.8,7.2,34.9C5.3,35,4,32,4,32V15h6.6c-2.8,12.5,7.1,15.1,9.7,15.6c0.4,0.1,0.8,0.3,1.2,0.2C37.4,28.4,32.8,15,32.8,15h5.4
	C38.1,15,38.5,31.8,38.1,33.1z"/>
	</a>
</svg>
