<?xml version="1.0" encoding="utf-8"?>
<!-- Generator: Adobe Illustrator 21.0.0, SVG Export Plug-In . SVG Version: 6.00 Build 0)  -->
<svg version="1.1" id="linkedin" xmlns="http://www.w3.org/2000/svg" xmlns:xlink="http://www.w3.org/1999/xlink" x="0px" y="0px"
	 viewBox="0 0 54 54" style="enable-background:new 0 0 54 54;" xml:space="preserve">
<style type="text/css">
	.st0{fill:#FFFFFF;}
</style>
<a href="http://ca.linkedin.com/in/justin-west" target="_blank">		
<g id="logo">
	<g>
		<path id="i" class="st0" d="M3.3,18.4h10.4v33.8H3.2V18.4H3.3z M8.6,1.5c3.4,0,6.1,2.7,6.1,6.1s-2.7,6.1-6.1,6.1S2.4,11,2.4,7.6
			C2.4,4.4,5.1,1.5,8.6,1.5"/>
	</g>
	<g>
		<path id="n" class="st0" d="M20.4,18.4h10.1v4.7h0.2c1.4-2.7,4.9-5.4,9.9-5.4c10.6,0,12.6,7,12.6,16.2v18.5H42.5V35.9
			c0-4,0-9-5.4-9c-5.6,0-6.3,4.3-6.3,8.6v16.7H20.2V18.4H20.4z"/>
	</g>
</g>
</a>
</svg>
