<?xml version="1.0" encoding="utf-8"?>
<!-- Generator: Adobe Illustrator 19.2.0, SVG Export Plug-In . SVG Version: 6.00 Build 0)  -->
<svg version="1.1" id="Layer_1" xmlns="http://www.w3.org/2000/svg" xmlns:xlink="http://www.w3.org/1999/xlink" x="0px" y="0px"
	 viewBox="0 0 41 33.6" style="enable-background:new 0 0 41 33.6;" xml:space="preserve">
<style type="text/css">
	.st0{fill:#FFFFFF;}
	
</style>
<a href="http://twitter.com/afilionmusic" target="_blank">
<path id="twitter" class="st0" d="M0,29.5c0,0,8.6,8,23.3,1.5S36.5,8.4,36.5,8.4s4.3-3.1,4.5-4.4c0,0-3.4,1.1-4.3,1.2
	c-0.9,0.1,3-2.8,3.1-4.2c0,0-3.4,0.7-5,1.7c0,0-3.9-5.3-11.9-0.6c0,0-4.8,3.2-2.4,8.3c0,0-10.2,0.1-17.6-9.1c0,0-4.7,4.5,2.3,11.3
	c0,0-1.7,0.5-3.6-1c0,0-1.7,5.1,6.3,8.4c0,0-1.3,1-3.7,0.4c0,0,1.3,5.5,7.9,5.6C12.1,25.9,7.5,30.2,0,29.5z"/>
	</a>
</svg>
