<?xml version="1.0" encoding="utf-8"?>
<!-- Generator: Adobe Illustrator 21.0.0, SVG Export Plug-In . SVG Version: 6.00 Build 0)  -->
<svg version="1.1" id="Layer_1" xmlns="http://www.w3.org/2000/svg" xmlns:xlink="http://www.w3.org/1999/xlink" x="0px" y="0px"
	 viewBox="0 0 50 50" style="enable-background:new 0 0 50 50;" xml:space="preserve">
<g>
	<path d="M47.1,16h-44c-0.6,0-1-0.4-1-1V9.6c0-0.5,0.4-1,1-1h44c0.5,0,1,0.5,1,1V15C48.1,15.6,47.6,16,47.1,16z"/>
	<path d="M47,28.7H3c-0.5,0-1-0.4-1-1v-5.4c0-0.6,0.5-1,1-1h44c0.6,0,1,0.4,1,1v5.4C48,28.2,47.6,28.7,47,28.7z"/>
	<path d="M47.1,41.4h-44c-0.6,0-1-0.5-1-1V35c0-0.5,0.4-1,1-1h44c0.5,0,1,0.5,1,1v5.4C48.1,40.9,47.6,41.4,47.1,41.4z"/>
</g>
</svg>
